<svg >
  <symbol viewBox="0 0 13 14" xmlns="http://www.w3.org/2000/svg" id="icon__search">
    <path d="M12.802 12.751L9.59779 9.28668C10.4217 8.26764 10.8735 6.98629 10.8735 5.65218C10.8735 2.53599 8.43501 0 5.43575 0C2.43851 0 0 2.53529 0 5.65218C0 8.76978 2.43851 11.3051 5.43575 11.3051C6.56132 11.3051 7.6348 10.9527 8.55068 10.2818L11.7799 13.7735C11.9152 13.9198 12.0958 14 12.2913 14C12.4746 14 12.6491 13.9269 12.7817 13.7939C13.0651 13.5119 13.0733 13.045 12.802 12.751ZM5.43575 1.47476C7.65171 1.47476 9.45506 3.34897 9.45506 5.65218C9.45506 7.95609 7.65239 9.83031 5.43575 9.83031C3.22113 9.83031 1.41846 7.95609 1.41846 5.65218C1.41846 3.34968 3.22113 1.47476 5.43575 1.47476Z" fill="#222222"/>
  </symbol>
  <symbol viewBox="0 0 20 12" xmlns="http://www.w3.org/2000/svg" id="icon__down">
<path d="M0 1.04202L8.958 10L10 11.042L11.042 10L20 1.04202L18.958 0L10 8.95798L1.042 0L0 1.04202Z" fill="black"/>
</symbol>
<symbol viewBox="0 0 20 12" xmlns="http://www.w3.org/2000/svg" id="icon__up">
<path d="M20 9.99997L11.042 1.04199L10 -7.62939e-06L8.95798 1.04199L0 9.99997L1.04202 11.042L10 2.08401L18.958 11.042L20 9.99997Z" fill="black"/>
</symbol>

</svg>
